<?xml version="1.0" encoding="UTF-8"?>
<svg width="194px" height="194px" viewBox="0 0 194 194" version="1.1" xmlns="http://www.w3.org/2000/svg" xmlns:xlink="http://www.w3.org/1999/xlink">
    <title>Artboard</title>
    <g id="Artboard" stroke="none" stroke-width="1" fill="none" fill-rule="evenodd">
        <path d="M96.6872761,138.573234 C71.1139783,138.573234 50.3112043,116.705881 50.3112043,89.8315819 C50.3112043,89.1296412 50.3835847,88.4484476 50.4131948,87.7568805 C46.3401545,82.1586445 42.6059858,76.570782 39.2764892,71.0797389 C37.5229104,77.0064693 36.5753857,83.3031881 36.5753857,89.8315819 C36.5753857,124.665819 63.5403604,153.009698 96.6872761,153.009698 C101.944722,153.009698 107.017928,152.224769 111.880572,150.886587 C106.883037,147.093341 101.862472,142.943938 96.8846771,138.559402 L96.6872761,138.573234" id="Fill-88" fill="#3BBEED"></path>
        <path d="M96.6872761,26.6500081 C93.5091202,26.6500081 90.4132147,26.988876 87.3699495,27.4902622 C84.4944752,27.9639857 81.6848011,28.652095 78.9540875,29.5234696 C76.9603375,30.1562535 75.0060677,30.8720255 73.1110183,31.7261109 C69.9229923,33.1576549 66.8994672,34.9038619 64.0239929,36.8748283 C57.0129678,41.6777621 50.9922377,47.950276 46.4026648,55.3120082 C48.7451565,59.6965438 51.5087703,64.3611642 54.7000863,69.267833 C62.0993332,52.6529325 78.1118433,41.08993 96.6872761,41.08993 C122.257284,41.08993 143.063348,62.9538251 143.063348,89.8315819 C143.063348,110.101415 131.344309,127.452834 114.555355,134.790362 C118.911337,138.289691 125.955262,144.655567 125.955262,144.655567 L127.38642,144.057361 C136.019423,138.638933 143.227849,131.004031 148.353694,121.916839 C150.173073,118.687221 151.745701,115.281253 153.009068,111.709308 C153.653911,109.876655 154.213214,108.009424 154.696846,106.104157 C155.206799,104.091696 155.634501,102.0412 155.953632,99.952667 C156.466875,96.6504339 156.802457,93.2859598 156.802457,89.8315819 C156.802457,54.9938873 129.834192,26.6500081 96.6872761,26.6500081" id="Fill-89" fill="#3BBEED"></path>
        <path d="M89.9920926,110.025342 C83.7081612,102.964442 77.7960017,95.7341074 72.3608945,88.4588211 C69.9591825,85.2430339 70.5053252,80.5991606 73.6209708,78.1544708 C76.5885656,75.8308052 80.7997867,76.3702275 83.0797681,79.4269543 C88.2944441,86.4117824 93.9730125,93.36549 100.023353,100.156679 C110.120413,111.49838 120.556345,121.650586 131.035048,130.329754 L122.527065,141.671455 C111.5088,132.542768 100.562915,121.896092 89.9920926,110.025342 Z" id="Fill-90" fill="#3BBEED"></path>
        <path d="M139.819392,120.965934 C130.061203,112.549562 120.385265,102.981731 111.074518,92.5183202 C110.051323,91.3703188 109.037998,90.2188595 108.041123,89.0639424 C105.43543,86.062541 105.678891,81.4048363 108.593846,78.7353872 C111.40023,76.1662152 115.644351,76.3978902 118.148053,79.2886409 C119.121898,80.4089796 120.108903,81.5327762 121.105778,82.653115 C130.008563,92.6531758 139.237059,101.788778 148.534645,109.804041 L139.819392,120.965934" id="Fill-91" fill="#3BBEED"></path>
        <path d="M177.634841,52.1550042 C177.634841,57.3867096 173.59799,61.6260162 168.620196,61.6260162 C163.642401,61.6260162 159.605551,57.3867096 159.605551,52.1550042 C159.605551,46.919841 163.642401,42.6770766 168.620196,42.6770766 C173.59799,42.6770766 177.634841,46.919841 177.634841,52.1550042" id="Fill-92" fill="#43CEFA"></path>
        <path d="M154.696846,106.104157 C154.213214,108.009424 153.653911,109.876655 153.009068,111.709308 C151.745701,115.281253 150.173073,118.687221 148.353694,121.916839 C163.53383,146.291123 166.024373,162.072685 162.385614,165.893594 C155.43052,173.213832 118.707356,156.716498 79.2139988,115.212096 C39.7173514,73.7007784 24.033843,35.1044164 30.9889378,27.7945518 C33.7492616,24.8865119 44.8958373,25.4363078 64.0239929,36.8748283 C66.8994672,34.9038619 69.9229923,33.1576549 73.1110183,31.7261109 C75.0060677,30.8720255 76.9603375,30.1562535 78.9540875,29.5234696 C51.8575121,11.1900248 31.4298,6.91613986 21.2735192,17.583563 C3.42518001,36.3457794 32.0220029,86.0314205 69.4952902,125.423085 C99.1054382,156.53669 134.831727,181.830758 157.328859,181.830758 C163.306819,181.830758 168.350414,180.043057 172.101033,176.104582 C187.695711,159.714441 166.606706,123.618094 154.696846,106.104157" id="Fill-93" fill="#61D8FD"></path>
    </g>
</svg>